<svg width="24" height="24" viewBox="0 0 24 24" fill="none" xmlns="http://www.w3.org/2000/svg">
<path fill-rule="evenodd" clip-rule="evenodd" d="M19.7389 8.21406L17.8189 15.2541C17.7833 15.3847 17.6695 15.4788 17.5345 15.4891L10.0609 16.064L9.70756 16.7701H16.8701C17.0469 16.7701 17.1901 16.9134 17.1901 17.0901C17.1901 17.2668 17.0469 17.4101 16.8701 17.4101H9.19005C9.07914 17.4101 8.97612 17.3527 8.9178 17.2584C8.85948 17.164 8.85418 17.0462 8.90378 16.947L9.31658 16.1214L9.21418 16.1292L9.19005 16.1301C9.0431 16.1302 8.91498 16.0302 8.87939 15.8876L6.44628 6.12252C6.40729 5.9847 6.28135 5.88968 6.13812 5.89001H4.07C3.89327 5.89001 3.75 5.74674 3.75 5.57C3.75 5.39327 3.89327 5.25 4.07 5.25H6.13812C6.57277 5.25067 6.95305 5.54252 7.06613 5.9622L7.52802 7.81598C7.54846 7.81207 7.56922 7.81008 7.59004 7.81002H19.4302C19.5299 7.81003 19.6238 7.85651 19.6844 7.93573C19.7449 8.01495 19.7651 8.11786 19.7389 8.21406ZM10.7901 11.97C10.7901 11.7933 10.9334 11.65 11.1101 11.65H12.7101V10.05C12.7101 9.87329 12.8534 9.73002 13.0301 9.73002C13.2068 9.73002 13.3501 9.87329 13.3501 10.05V11.65H14.9501C15.1269 11.65 15.2701 11.7933 15.2701 11.97C15.2701 12.1468 15.1269 12.29 14.9501 12.29H13.3501V13.8901C13.3501 14.0668 13.2068 14.2101 13.0301 14.2101C12.8534 14.2101 12.7101 14.0668 12.7101 13.8901V12.29H11.1101C10.9334 12.29 10.7901 12.1468 10.7901 11.97ZM7.68545 8.45004H19.0112L17.2603 14.8682L9.43484 15.4704L7.68545 8.45004ZM10.1501 18.0501C9.79662 18.0501 9.51008 18.3367 9.51008 18.6901C9.51008 19.0436 9.79662 19.3301 10.1501 19.3301C10.5035 19.3301 10.7901 19.0436 10.7901 18.6901C10.7901 18.3367 10.5035 18.0501 10.1501 18.0501ZM15.2702 18.6901C15.2702 18.3367 15.5567 18.0501 15.9102 18.0501C16.2636 18.0501 16.5502 18.3367 16.5502 18.6901C16.5502 19.0436 16.2636 19.3301 15.9102 19.3301C15.5567 19.3301 15.2702 19.0436 15.2702 18.6901Z" fill="white"/>
</svg>
